<?xml version="1.0" standalone="no"?>
<!DOCTYPE svg PUBLIC "-//W3C//DTD SVG 20010904//EN"
 "http://www.w3.org/TR/2001/REC-SVG-20010904/DTD/svg10.dtd">
<svg version="1.0" xmlns="http://www.w3.org/2000/svg"
 width="512.000000pt" height="512.000000pt" viewBox="0 0 512.000000 512.000000"
 preserveAspectRatio="xMidYMid meet">
<metadata>
Created by potrace 1.14, written by Peter Selinger 2001-2017
</metadata>
<g transform="translate(0.000000,512.000000) scale(0.100000,-0.100000)"
fill="#000000" stroke="none">
<path d="M320 4466 c-147 -41 -267 -162 -306 -310 -20 -76 -20 -3116 0 -3192
29 -111 118 -224 214 -273 105 -54 -19 -51 2329 -51 1551 0 2187 3 2225 11
161 34 297 173 328 339 15 78 14 3082 -1 3152 -33 153 -158 283 -313 324 -72
19 -4406 19 -4476 0z m1523 -642 c233 -52 423 -235 484 -467 21 -81 21 -233 0
-314 -87 -332 -418 -538 -752 -468 -233 49 -435 245 -489 475 -9 36 -16 103
-16 150 0 179 58 318 185 446 63 64 98 90 165 123 141 69 279 87 423 55z
m2847 -624 l0 -640 -850 0 -850 0 0 640 0 640 850 0 850 0 0 -640z m-2738
-1066 c396 -55 799 -230 940 -408 77 -96 91 -142 96 -303 l5 -143 -1283 0
-1282 0 4 153 c3 132 6 158 26 197 114 232 500 426 1004 505 118 18 356 18
490 -1z"/>
<path d="M3200 3517 l0 -104 320 -213 320 -213 320 213 320 213 0 104 c0 56
-2 103 -5 103 -3 0 -147 -95 -320 -210 l-315 -210 -315 210 c-173 115 -317
210 -320 210 -3 0 -5 -47 -5 -103z"/>
</g>
</svg>
